<svg width="24" height="24" viewBox="0 0 24 24" fill="none" xmlns="http://www.w3.org/2000/svg">
<path d="M22.0002 11.65C22.0002 17.7 20.8702 18.7 17.4702 20.72M10.3702 11.65H4.57023C3.04023 11.65 1.99023 10.49 1.99023 9.07002V5.85002C1.99023 4.43002 3.04023 3.27002 4.57023 3.27002H7.80023C9.22023 3.27002 10.3802 4.43002 10.3802 5.85002V11.65M10.3702 11.65C10.3702 17.7 9.24023 18.7 5.84023 20.72M22.0002 11.65H16.2002C14.6702 11.65 13.6202 10.49 13.6202 9.07002V5.85002C13.6202 4.43002 14.6702 3.27002 16.2002 3.27002H19.4202C20.8402 3.27002 22.0002 4.43002 22.0002 5.85002V11.65V11.65Z" stroke="#C8F2FF" stroke-width="1.5" stroke-linecap="round" stroke-linejoin="round"/>
</svg>
