<svg width="22" height="22" viewBox="0 0 22 22" fill="none" xmlns="http://www.w3.org/2000/svg">
<path d="M12.8333 8.525V11.1833H15.2167C15.4 11.1833 15.4917 11.3667 15.4917 11.55L15.125 13.2917C15.125 13.3833 14.9417 13.475 14.85 13.475H12.8333V20.1667H10.0833V13.5667H8.525C8.34167 13.5667 8.25 13.475 8.25 13.2917V11.55C8.25 11.3667 8.34167 11.275 8.525 11.275H10.0833V8.25C10.0833 6.69167 11.275 5.5 12.8333 5.5H15.3083C15.4917 5.5 15.5833 5.59167 15.5833 5.775V7.975C15.5833 8.15833 15.4917 8.25 15.3083 8.25H13.1083C12.925 8.25 12.8333 8.34167 12.8333 8.525V8.525Z" stroke="white" stroke-width="1.5" stroke-miterlimit="10" stroke-linecap="round"/>
<path d="M13.7497 20.1667H8.24967C3.66634 20.1667 1.83301 18.3334 1.83301 13.75V8.25004C1.83301 3.66671 3.66634 1.83337 8.24967 1.83337H13.7497C18.333 1.83337 20.1663 3.66671 20.1663 8.25004V13.75C20.1663 18.3334 18.333 20.1667 13.7497 20.1667Z" stroke="white" stroke-width="1.5" stroke-linecap="round" stroke-linejoin="round"/>
</svg>
