<svg width="22" height="22" viewBox="0 0 22 22" fill="none" xmlns="http://www.w3.org/2000/svg">
<path d="M8.24967 20.1667H13.7497C18.333 20.1667 20.1663 18.3334 20.1663 13.75V8.25004C20.1663 3.66671 18.333 1.83337 13.7497 1.83337H8.24967C3.66634 1.83337 1.83301 3.66671 1.83301 8.25004V13.75C1.83301 18.3334 3.66634 20.1667 8.24967 20.1667Z" stroke="white" stroke-width="1.5" stroke-linecap="round" stroke-linejoin="round"/>
<path d="M11.0003 14.2083C11.4216 14.2083 11.8388 14.1253 12.2281 13.9641C12.6174 13.8028 12.971 13.5665 13.269 13.2686C13.5669 12.9707 13.8032 12.617 13.9644 12.2277C14.1257 11.8385 14.2087 11.4213 14.2087 11C14.2087 10.5786 14.1257 10.1614 13.9644 9.77218C13.8032 9.38293 13.5669 9.02925 13.269 8.73133C12.971 8.4334 12.6174 8.19708 12.2281 8.03585C11.8388 7.87461 11.4216 7.79163 11.0003 7.79163C10.1494 7.79163 9.33337 8.12965 8.73169 8.73133C8.13001 9.333 7.79199 10.1491 7.79199 11C7.79199 11.8509 8.13001 12.6669 8.73169 13.2686C9.33337 13.8703 10.1494 14.2083 11.0003 14.2083V14.2083Z" stroke="white" stroke-width="1.5" stroke-linecap="round" stroke-linejoin="round"/>
<path d="M16.166 6.41663H16.178" stroke="white" stroke-width="2" stroke-linecap="round" stroke-linejoin="round"/>
</svg>
