<svg width="41" height="41" viewBox="0 0 41 41" fill="none" xmlns="http://www.w3.org/2000/svg">
<circle cx="20.5" cy="20.5" r="20.5" fill="#C8F2FF"/>
<path d="M25.4097 13C27.3497 13 28.9097 14.57 28.9097 16.5C28.9097 18.39 27.4097 19.93 25.5397 20C25.4534 19.99 25.3661 19.99 25.2797 20M27.3397 29C28.0597 28.85 28.7397 28.56 29.2997 28.13C30.8597 26.96 30.8597 25.03 29.2997 23.86C28.7497 23.44 28.0797 23.16 27.3697 23M18.1597 19.87C18.0597 19.86 17.9397 19.86 17.8297 19.87C16.6819 19.831 15.5944 19.3468 14.7974 18.52C14.0003 17.6931 13.5565 16.5885 13.5597 15.44C13.5597 12.99 15.5397 11 17.9997 11C19.176 10.9788 20.3124 11.4257 21.1592 12.2424C22.0059 13.0591 22.4935 14.1788 22.5147 15.355C22.5359 16.5312 22.089 17.6677 21.2723 18.5145C20.4556 19.3612 19.336 19.8488 18.1597 19.87ZM13.1597 23.56C10.7397 25.18 10.7397 27.82 13.1597 29.43C15.9097 31.27 20.4197 31.27 23.1697 29.43C25.5897 27.81 25.5897 25.17 23.1697 23.56C20.4297 21.73 15.9197 21.73 13.1597 23.56V23.56Z" stroke="black" stroke-width="1.5" stroke-linecap="round" stroke-linejoin="round"/>
</svg>
