<svg width="41" height="41" viewBox="0 0 41 41" fill="none" xmlns="http://www.w3.org/2000/svg">
<circle cx="20.5" cy="20.5" r="20.5" fill="#C8F2FF"/>
<path d="M17.6253 31.0833H23.3753C28.167 31.0833 30.0837 29.1667 30.0837 24.375V18.625C30.0837 13.8333 28.167 11.9167 23.3753 11.9167H17.6253C12.8337 11.9167 10.917 13.8333 10.917 18.625V24.375C10.917 29.1667 12.8337 31.0833 17.6253 31.0833Z" stroke="black" stroke-width="1.5" stroke-linecap="round" stroke-linejoin="round"/>
<path d="M11.5586 28.1604L16.2832 24.9883C17.0403 24.4804 18.1328 24.5379 18.8132 25.1225L19.1294 25.4004C19.8769 26.0425 21.0844 26.0425 21.8319 25.4004L25.8186 21.9792C26.5661 21.3371 27.7736 21.3371 28.5211 21.9792L30.0832 23.3208M17.6248 19.5833C18.1332 19.5833 18.6207 19.3814 18.9801 19.022C19.3396 18.6625 19.5415 18.175 19.5415 17.6667C19.5415 17.1583 19.3396 16.6708 18.9801 16.3114C18.6207 15.9519 18.1332 15.75 17.6248 15.75C17.1165 15.75 16.629 15.9519 16.2696 16.3114C15.9101 16.6708 15.7082 17.1583 15.7082 17.6667C15.7082 18.175 15.9101 18.6625 16.2696 19.022C16.629 19.3814 17.1165 19.5833 17.6248 19.5833Z" stroke="black" stroke-width="1.5" stroke-linecap="round" stroke-linejoin="round"/>
</svg>
