<svg width="41" height="41" viewBox="0 0 41 41" fill="none" xmlns="http://www.w3.org/2000/svg">
<circle cx="20.5" cy="20.5" r="20.5" fill="#C8F2FF"/>
<path d="M26.5 27.2883H25.8033C25.07 27.2883 24.3733 27.5725 23.86 28.0858L22.2925 29.635C21.5775 30.3408 20.4133 30.3408 19.6983 29.635L18.1308 28.0858C17.6175 27.5725 16.9117 27.2883 16.1875 27.2883H15.5C13.9783 27.2883 12.75 26.0692 12.75 24.5658V14.565C12.75 13.0617 13.9783 11.8425 15.5 11.8425H26.5C28.0217 11.8425 29.25 13.0617 29.25 14.565V24.5658C29.25 26.06 28.0217 27.2883 26.5 27.2883Z" stroke="black" stroke-width="1.5" stroke-miterlimit="10" stroke-linecap="round" stroke-linejoin="round"/>
<path d="M21.2567 23.7133C21.1192 23.7592 20.89 23.7592 20.7433 23.7133C19.5517 23.3008 16.875 21.605 16.875 18.7175C16.875 17.4433 17.9017 16.4167 19.1667 16.4167C19.9183 16.4167 20.5783 16.7742 21 17.3333C21.4217 16.7742 22.0817 16.4167 22.8333 16.4167C24.0983 16.4167 25.125 17.4433 25.125 18.7175C25.1158 21.605 22.4483 23.3008 21.2567 23.7133V23.7133Z" stroke="black" stroke-width="1.5" stroke-linecap="round" stroke-linejoin="round"/>
</svg>
