<svg width="17" height="17" viewBox="0 0 17 17" fill="none" xmlns="http://www.w3.org/2000/svg">
<g clip-path="url(#clip0_94_688)">
<path fill-rule="evenodd" clip-rule="evenodd" d="M5.28836 0.755063C6.11924 0.716813 6.38415 0.708313 8.50065 0.708313C10.6172 0.708313 10.8821 0.717521 11.7122 0.755063C12.5424 0.792605 13.1091 0.925063 13.6049 1.11702C14.1241 1.31323 14.5952 1.61994 14.9847 2.0166C15.3814 2.40548 15.6874 2.87581 15.8829 3.39573C16.0756 3.89156 16.2073 4.45823 16.2456 5.28698C16.2838 6.11927 16.2923 6.38419 16.2923 8.49998C16.2923 10.6165 16.2831 10.8814 16.2456 11.7123C16.208 12.541 16.0756 13.1077 15.8829 13.6035C15.6874 14.1235 15.3809 14.5946 14.9847 14.9841C14.5952 15.3807 14.1241 15.6867 13.6049 15.8822C13.1091 16.0749 12.5424 16.2066 11.7137 16.2449C10.8821 16.2831 10.6172 16.2916 8.50065 16.2916C6.38415 16.2916 6.11924 16.2824 5.28836 16.2449C4.45961 16.2074 3.89294 16.0749 3.39711 15.8822C2.87714 15.6867 2.40602 15.3802 2.01657 14.9841C1.62017 14.595 1.31342 14.1241 1.11769 13.6042C0.925734 13.1084 0.793984 12.5417 0.755734 11.713C0.717484 10.8807 0.708984 10.6158 0.708984 8.49998C0.708984 6.38348 0.718193 6.11856 0.755734 5.2884C0.793276 4.45823 0.925734 3.89156 1.11769 3.39573C1.3137 2.87587 1.62069 2.40499 2.01728 2.0159C2.40618 1.61958 2.87682 1.31284 3.3964 1.11702C3.89224 0.925063 4.4589 0.793313 5.28765 0.755063H5.28836ZM11.6492 2.15756C10.8275 2.12002 10.581 2.11223 8.50065 2.11223C6.42028 2.11223 6.17378 2.12002 5.35211 2.15756C4.59207 2.19227 4.17982 2.31906 3.90499 2.42602C3.54161 2.56769 3.28165 2.73556 3.00894 3.00827C2.75043 3.25977 2.55149 3.56593 2.42669 3.90431C2.31973 4.17915 2.19294 4.5914 2.15823 5.35144C2.12069 6.17311 2.1129 6.41961 2.1129 8.49998C2.1129 10.5804 2.12069 10.8269 2.15823 11.6485C2.19294 12.4086 2.31973 12.8208 2.42669 13.0956C2.55136 13.4335 2.7504 13.7402 3.00894 13.9917C3.2604 14.2502 3.56711 14.4493 3.90499 14.5739C4.17982 14.6809 4.59207 14.8077 5.35211 14.8424C6.17378 14.8799 6.41957 14.8877 8.50065 14.8877C10.5817 14.8877 10.8275 14.8799 11.6492 14.8424C12.4092 14.8077 12.8215 14.6809 13.0963 14.5739C13.4597 14.4323 13.7197 14.2644 13.9924 13.9917C14.2509 13.7402 14.4499 13.4335 14.5746 13.0956C14.6816 12.8208 14.8084 12.4086 14.8431 11.6485C14.8806 10.8269 14.8884 10.5804 14.8884 8.49998C14.8884 6.41961 14.8806 6.17311 14.8431 5.35144C14.8084 4.5914 14.6816 4.17915 14.5746 3.90431C14.4329 3.54094 14.2651 3.28098 13.9924 3.00827C13.7409 2.74978 13.4347 2.55084 13.0963 2.42602C12.8215 2.31906 12.4092 2.19227 11.6492 2.15756ZM7.50544 10.9019C8.06124 11.1333 8.68013 11.1645 9.25639 10.9903C9.83266 10.816 10.3306 10.4471 10.665 9.94657C10.9995 9.44601 11.1499 8.84485 11.0904 8.24576C11.0308 7.64668 10.7652 7.08684 10.3388 6.66186C10.0669 6.39019 9.73826 6.18218 9.37639 6.05279C9.01452 5.92341 8.62846 5.87586 8.246 5.91358C7.86355 5.95131 7.49422 6.07336 7.1646 6.27095C6.83497 6.46854 6.55326 6.73676 6.33974 7.05629C6.12622 7.37583 5.9862 7.73873 5.92977 8.11887C5.87333 8.49901 5.90188 8.88694 6.01337 9.25472C6.12485 9.62251 6.31649 9.961 6.5745 10.2458C6.8325 10.5307 7.15044 10.7547 7.50544 10.9019ZM5.66874 5.66806C6.04063 5.29617 6.48213 5.00117 6.96803 4.7999C7.45393 4.59864 7.97472 4.49505 8.50065 4.49505C9.02659 4.49505 9.54737 4.59864 10.0333 4.7999C10.5192 5.00117 10.9607 5.29617 11.3326 5.66806C11.7045 6.03996 11.9995 6.48146 12.2007 6.96736C12.402 7.45326 12.5056 7.97405 12.5056 8.49998C12.5056 9.02592 12.402 9.5467 12.2007 10.0326C11.9995 10.5185 11.7045 10.96 11.3326 11.3319C10.5815 12.083 9.56283 12.5049 8.50065 12.5049C7.43848 12.5049 6.41981 12.083 5.66874 11.3319C4.91766 10.5808 4.49572 9.56216 4.49572 8.49998C4.49572 7.43781 4.91766 6.41914 5.66874 5.66806ZM13.3938 5.09148C13.486 5.00455 13.5598 4.9 13.6108 4.78405C13.6618 4.66809 13.6891 4.54307 13.6909 4.41639C13.6928 4.28971 13.6692 4.16395 13.6215 4.04655C13.5739 3.92916 13.5032 3.82251 13.4136 3.73292C13.324 3.64334 13.2174 3.57264 13.1 3.52501C12.9826 3.47739 12.8568 3.4538 12.7302 3.45564C12.6035 3.45749 12.4785 3.48474 12.3625 3.53577C12.2465 3.5868 12.142 3.66057 12.0551 3.75273C11.886 3.93196 11.7934 4.17002 11.797 4.41639C11.8006 4.66275 11.9001 4.89802 12.0743 5.07224C12.2485 5.24647 12.4838 5.34593 12.7302 5.34953C12.9765 5.35312 13.2146 5.26055 13.3938 5.09148Z" fill="white"/>
</g>
<defs>
<clipPath id="clip0_94_688">
<rect width="17" height="17" fill="white"/>
</clipPath>
</defs>
</svg>
