<svg width="20" height="20" viewBox="0 0 20 20" fill="none" xmlns="http://www.w3.org/2000/svg">
<path d="M7.24967 19.1667H12.7497C17.333 19.1667 19.1663 17.3334 19.1663 12.75V7.25004C19.1663 2.66671 17.333 0.833374 12.7497 0.833374H7.24967C2.66634 0.833374 0.833008 2.66671 0.833008 7.25004V12.75C0.833008 17.3334 2.66634 19.1667 7.24967 19.1667Z" stroke="#303030" stroke-width="1.5" stroke-linecap="round" stroke-linejoin="round"/>
<path d="M10.0003 13.2083C10.4216 13.2083 10.8388 13.1253 11.2281 12.9641C11.6174 12.8028 11.971 12.5665 12.269 12.2686C12.5669 11.9707 12.8032 11.617 12.9644 11.2277C13.1257 10.8385 13.2087 10.4213 13.2087 9.99996C13.2087 9.57864 13.1257 9.16144 12.9644 8.77218C12.8032 8.38293 12.5669 8.02925 12.269 7.73133C11.971 7.4334 11.6174 7.19708 11.2281 7.03585C10.8388 6.87461 10.4216 6.79163 10.0003 6.79163C9.14942 6.79163 8.33337 7.12965 7.73169 7.73133C7.13001 8.333 6.79199 9.14906 6.79199 9.99996C6.79199 10.8509 7.13001 11.6669 7.73169 12.2686C8.33337 12.8703 9.14942 13.2083 10.0003 13.2083V13.2083Z" stroke="#303030" stroke-width="1.5" stroke-linecap="round" stroke-linejoin="round"/>
<path d="M15.166 5.41663H15.178" stroke="#303030" stroke-width="2" stroke-linecap="round" stroke-linejoin="round"/>
</svg>
