<svg width="17" height="17" viewBox="0 0 17 17" fill="none" xmlns="http://www.w3.org/2000/svg">
<path fill-rule="evenodd" clip-rule="evenodd" d="M0.708985 2.01023C0.708985 1.66494 0.84615 1.33379 1.09031 1.08964C1.33446 0.845481 1.66561 0.708315 2.0109 0.708315H14.989C15.1601 0.708035 15.3296 0.741509 15.4878 0.80682C15.6459 0.872131 15.7896 0.967997 15.9107 1.08893C16.0318 1.20986 16.1278 1.35348 16.1933 1.51157C16.2588 1.66966 16.2924 1.83912 16.2923 2.01023V14.9883C16.2925 15.1595 16.2589 15.329 16.1936 15.4871C16.1282 15.6453 16.0322 15.789 15.9113 15.9101C15.7903 16.0311 15.6466 16.1271 15.4885 16.1926C15.3303 16.2581 15.1608 16.2917 14.9897 16.2917H2.0109C1.83987 16.2917 1.67052 16.258 1.51252 16.1925C1.35451 16.127 1.21096 16.031 1.09006 15.9101C0.969153 15.7891 0.87327 15.6455 0.807884 15.4875C0.742498 15.3294 0.708892 15.1601 0.708985 14.989V2.01023ZM6.87715 6.64982H8.98728V7.70948C9.29186 7.10032 10.071 6.55207 11.2419 6.55207C13.4866 6.55207 14.0186 7.76544 14.0186 9.99173V14.1157H11.7469V10.4989C11.7469 9.23098 11.4424 8.51557 10.6689 8.51557C9.59574 8.51557 9.14949 9.28694 9.14949 10.4989V14.1157H6.87715V6.64982ZM2.98132 14.0186H5.25365V6.55207H2.98132V14.0179V14.0186ZM5.57878 4.11682C5.58306 4.31138 5.54844 4.50483 5.47695 4.68583C5.40545 4.86683 5.29853 5.03172 5.16244 5.17084C5.02636 5.30995 4.86386 5.42048 4.68447 5.49595C4.50509 5.57141 4.31245 5.61028 4.11784 5.61028C3.92323 5.61028 3.73059 5.57141 3.5512 5.49595C3.37182 5.42048 3.20932 5.30995 3.07324 5.17084C2.93715 5.03172 2.83023 4.86683 2.75873 4.68583C2.68724 4.50483 2.65262 4.31138 2.6569 4.11682C2.66531 3.73492 2.82292 3.3715 3.09599 3.10438C3.36905 2.83727 3.73585 2.68769 4.11784 2.68769C4.49983 2.68769 4.86663 2.83727 5.13969 3.10438C5.41275 3.3715 5.57037 3.73492 5.57878 4.11682Z" fill="white"/>
</svg>
